<svg version="1.1" viewBox="0.0 0.0 307.0 100.0" fill="none" stroke="none" stroke-linecap="square" stroke-miterlimit="10" xmlns:xlink="http://www.w3.org/1999/xlink" xmlns="http://www.w3.org/2000/svg"><clipPath id="p.0"><path d="m0 0l307.0 0l0 100.0l-307.0 0l0 -100.0z" clip-rule="nonzero"/></clipPath><g clip-path="url(#p.0)"><path fill="#000000" fill-opacity="0.0" d="m0 0l307.0 0l0 100.0l-307.0 0z" fill-rule="evenodd"/><path fill="#000000" fill-opacity="0.0" d="m-10.121904 -27.970774l466.04727 0l0 88.25197l-466.04727 0z" fill-rule="evenodd"/><path fill="#85200c" d="m34.33122 44.519848l-6.156248 24.234379q2.234375 0.28125 3.5625 0.28125q2.359373 0 4.921873 -0.640625l-0.453125 2.234375q-2.5625 0.640625 -4.656248 0.640625q-2.40625 0 -5.6875 -0.375q-3.515625 -0.265625 -5.96875 -0.265625q-3.96875 0 -9.890625 1.046875l0.625 -2.546875q4.96875 -1.234375 6.53125 -2.515625q2.3125 -2.046875 3.546875 -6.921879l6.328125 -25.46875q1.234375 -4.749998 1.234375 -5.703123q0 -0.8125 -0.59375 -1.171875q-0.59375 -0.375 -2.28125 -0.375l0.640625 -2.28125q5.65625 0 13.812498 -1.640625q-0.78125 2.515625 -4.828125 18.546873q1.640625 0.453125 3.328125 0.453125q5.140625 0 8.734375 -4.09375q3.609375 -4.109375 3.609375 -9.343748q0 -4.375 -3.0625 -7.03125q-3.046875 -2.671875 -8.140625 -2.671875q-7.656248 0 -14.468748 3.4375q-6.8125 3.4375 -10.515625 8.453125q-3.6875 5.015623 -3.6875 10.343748q0 2.546875 1.015625 4.1875q1.03125 1.640625 3.09375 3.1875q1.59375 1.140625 2.296875 2.0625q0.703125 0.90625 0.703125 2.046875q0 1.140625 -0.828125 2.015625q-0.8125 0.859375 -2.09375 0.859375q-3.046875 0 -5.140625 -3.78125q-2.0937505 -3.78125 -2.0937505 -8.796875q0 -7.609375 4.6250005 -13.781248q4.625 -6.1875 12.390625 -9.734375q7.765623 -3.5625 16.015623 -3.5625q9.4375 0 14.96875 3.21875q5.546875 3.21875 5.546875 8.8125q0 5.703123 -4.8125 10.515623q-4.8125 4.796875 -13.28125 6.21875q1.140625 2.09375 2.265625 4.625q1.140625 2.53125 3.328125 9.265625q4.25 12.765629 8.078125 18.093754q3.828125 5.328125 8.421879 5.328125q1.59375 0 2.734375 -0.984375q1.140625 -0.96875 1.546875 -2.9375q0.640625 -2.8125 1.53125 -3.796875q0.890625 -0.984375 2.21875 -0.984375q1.453125 0 2.40625 0.953125q0.953125 0.96875 0.953125 2.515625q0 2.28125 -1.953125 4.21875q-1.953125 1.9375 -4.421875 2.8125q-2.453125 0.890625 -5.46875 0.890625q-14.718754 0 -22.593754 -18.953125q-1.828125 -4.140629 -4.921875 -14.437504l-2.0625 -6.609375l-0.953125 -0.09375zm59.283237 16.671875q-6.234375 5.250004 -11.59375 7.968754q-5.359375 2.703125 -10.328125 2.703125q-7.46875 0 -7.46875 -9.250004q0 -7.34375 3.671875 -14.65625q3.671875 -7.3125 9.34375 -11.546875q5.671875 -4.25 11.640625 -4.25q3.640625 0 5.53125 1.609375q1.890625 1.59375 1.890625 4.453125q0 3.0625 -1.921875 5.59375q-1.90625 2.53125 -5.640625 4.90625q-3.734375 2.359375 -13.984375 6.78125q-0.453125 2.09375 -0.453125 4.6875q0 2.875 0.90625 4.343754q0.90625 1.453125 3.375 1.453125q2.59375 0 5.875 -1.875q3.28125 -1.8750038 7.65625 -4.968754l1.5 2.046875zm-18.265625 -8.5625q5.828125 -3.015625 8.734375 -6.203125q2.921875 -3.1875 2.921875 -6.140625q0 -1.828125 -0.859375 -3.0625q-0.859375 -1.234375 -2.328125 -1.234375q-2.78125 0 -5.125 4.5625q-2.34375 4.5625 -3.34375 12.078125zm22.55011 -10.84375q4.828125 -4.96875 9.6875 -7.328125q4.859375 -2.375 9.09375 -2.375q2.78125 0 2.78125 2.640625q0 2.1875 -1.96875 8.296875q6.390625 -6.109375 8.390625 -7.65625q2.0 -1.5625 4.0 -2.375q2.015625 -0.828125 3.84375 -0.828125q3.40625 0 5.390625 2.40625q1.984375 2.390625 1.984375 6.484375q0 6.109375 -3.625 13.890625q-3.625 7.765625 -8.859375 12.390629q-5.234375 4.625 -10.484375 4.625q-3.875 0 -6.609375 -1.78125l-3.828125 14.984375q-0.359375 1.6875 -0.359375 2.375q0 1.28125 0.65625 1.9375q0.671875 0.65625 2.9375 1.25q2.28125 0.59375 5.921875 1.0l-0.671875 2.234375q-8.0625 -0.546875 -12.859375 -0.546875q-4.921875 0 -12.625 0.546875l0.59375 -2.234375q3.375 -0.359375 4.984375 -1.90625q1.625 -1.546875 2.578125 -5.5625l8.296875 -34.64063q2.328125 -9.46875 2.328125 -10.703125q0 -1.234375 -1.234375 -1.234375q-2.859375 0 -8.5625 5.890625l-1.78125 -1.78125zm14.765625 23.328129q3.28125 3.5625 7.515625 3.5625q2.734375 0 5.265625 -3.546875q2.53125 -3.5625038 4.46875 -9.625004q1.9375 -6.0625 1.9375 -11.9375q0 -5.0625 -3.78125 -5.0625q-1.734375 0 -4.75 2.53125q-3.0 2.53125 -4.984375 5.46875q-1.984375 2.9375 -3.25 8.71875l-2.421875 9.890629zm54.326935 -2.2343788q-4.828125 4.968754 -8.734375 7.031254q-3.890625 2.046875 -7.625 2.046875q-1.6875 0 -2.625 -1.0625q-0.9375 -1.046875 -0.9375 -2.765625q0 -3.28125 1.828125 -10.156254q1.828125 -6.890625 5.109375 -17.6875q0.265625 -1.09375 0.265625 -1.875q0 -0.359375 -0.234375 -0.625q-0.21875 -0.28125 -0.578125 -0.28125q-1.609375 0 -3.5 1.5q-1.890625 1.5 -4.078125 3.640625l-1.6875 -1.3125q8.484375 -9.25 15.859375 -9.25q2.109375 0 3.203125 0.859375q1.09375 0.859375 1.09375 1.78125q0 2.59375 -2.1875 9.84375q-5.390625 17.546875 -5.390625 20.906254q0 0.515625 0.265625 1.015625q0.28125 0.5 0.796875 0.5q0.8125 0 2.90625 -1.5q2.09375 -1.5156288 4.921875 -4.203129l1.328125 1.59375zm-1.140625 -51.484375q1.90625 0 3.0 1.234375q1.09375 1.21875 1.09375 3.140625q0 2.546875 -1.78125 4.625q-1.765625 2.0625 -4.1875 2.0625q-1.90625 0 -2.953125 -1.3125q-1.046875 -1.328125 -1.046875 -3.234375q0 -2.78125 1.671875 -4.640625q1.6875 -1.875 4.203125 -1.875zm18.733063 28.890623q3.734375 -3.921875 7.578125 -5.875q3.859375 -1.96875 7.0 -1.96875q3.546875 0 5.453125 2.71875q1.921875 2.703125 1.921875 7.578125q0 7.015625 -3.515625 13.8125q-3.5 6.78125 -9.40625 11.046879q-5.890625 4.265625 -12.0 4.265625q-4.609375 0 -7.484375 -2.375q-2.859375 -2.375 -2.859375 -6.328129q0 -3.703125 1.1875 -8.75l5.328125 -23.156248q2.59375 -11.65625 9.53125 -17.71875q3.1875 -3.375 7.140625 -5.15625q3.96875 -1.7812505 7.703125 -1.7812505q3.234375 0 5.140625 1.078125q1.921875 1.0625005 1.921875 3.1250005q0 1.71875 -1.296875 2.953125q-1.296875 1.234375 -3.25 1.234375q-1.1875 0 -2.328125 -0.453125q-1.140625 -0.453125 -2.265625 -0.96875q-1.109375 -0.53125 -2.1875 -0.984375q-1.0625 -0.46875 -2.109375 -0.46875q-1.6875 0 -2.859375 0.9375q-1.15625 0.9375 -2.0625 2.921875q-0.90625 1.984375 -2.546875 8.265625l-3.734375 16.046873zm7.96875 -2.78125q-2.6875 0 -5.703125 3.828125q-3.0 3.828125 -4.875 9.703125q-1.859375 5.875 -1.859375 12.03125q0 2.3750038 1.34375 4.078129q1.34375 1.703125 3.34375 1.703125q2.734375 0 5.390625 -3.328125q2.671875 -3.3281288 4.46875 -9.015629q1.8125 -5.703125 1.8125 -11.53125q0 -3.375 -1.046875 -5.421875q-1.046875 -2.046875 -2.875 -2.046875zm43.156418 -5.25q4.828125 0 7.828125 3.625q3.0156097 3.625 3.0156097 9.828125q0 6.421875 -3.3593597 12.546875q-3.34375 6.125004 -8.75 9.875004q-5.390625 3.734375 -11.046875 3.734375q-5.234375 0 -8.359375 -3.140625q-3.125 -3.15625 -3.125 -8.718754q0 -7.1875 3.28125 -13.71875q3.28125 -6.546875 8.75 -10.28125q5.46875 -3.75 11.765625 -3.75zm-4.65625 3.375q-2.1875 0 -4.234375 2.734375q-2.046875 2.734375 -3.296875 7.5q-1.25 4.765625 -1.25 10.6875q0 5.328125 1.359375 8.640629q1.375 3.296875 3.78125 3.296875q2.1875 0 4.25 -2.703125q2.078125 -2.7187538 3.3125 -7.312504q1.234375 -4.609375 1.234375 -10.03125q0 -6.25 -1.34375 -9.53125q-1.34375 -3.28125 -3.8125 -3.28125zm19.320724 36.406254q-2.09375 0 -3.671875 -1.203125q-1.5624847 -1.203125 -1.5624847 -2.890625q0 -1.40625 0.99998474 -2.515625q1.0 -1.125 2.375 -1.125q1.40625 0 2.875 1.765625q1.265625 1.46875 2.453125 1.46875q1.59375 0 4.3906097 -2.796875q2.8125 -2.8125038 5.5 -6.687504l3.328125 -4.96875l-2.140625 -10.15625q-0.546875 -2.640625 -1.28125 -4.03125q-0.71875 -1.390625 -1.859375 -1.390625q-0.921875 0 -2.8125 1.203125q-1.890625 1.203125 -3.7499847 2.796875l-1.28125 -1.859375q9.79686 -7.296875 13.89061 -7.296875q2.234375 0 3.5625 1.6875q0.78125 1.140625 1.296875 3.375q0.53125 2.234375 1.390625 6.0625q9.34375 -13.265623 16.21875 -13.265623q1.921875 0 3.0625 0.921875q1.140625 0.9062481 1.140625 2.359373q0 1.234375 -0.671875 1.96875q-0.65625 0.71875 -1.796875 1.109375q-1.140625 0.390625 -3.78125 0.484375l-1.953125 0.078125q-2.78125 0.140625 -4.84375 1.6875q-2.046875 1.546875 -6.734375 7.9375l3.1875 15.3125q2.28125 11.296879 5.125 16.281254q2.84375 5.0 6.359375 5.0q2.96875 0 4.1875 -3.921875q1.0 -2.640625 3.28125 -2.640625q1.09375 0 1.9375 0.8125q0.84375 0.828125 0.84375 2.09375q0 2.421875 -2.921875 4.421875q-2.90625 2.015625 -7.046875 2.015625q-5.203125 0 -9.671875 -3.125q-4.46875 -3.125 -7.09375 -9.328125q-2.609375 -6.1875 -4.984375 -16.953129l-1.765625 2.515625q-3.234375 4.6875 -5.890625 7.562504q-2.640625 2.875 -4.8749847 4.046875q-2.234375 1.1875 -5.015625 1.1875z" fill-rule="nonzero"/></g></svg>